/* XPM */
static char * barb_xpm[] = {
"10 10 3 1",
" 	c None",
".	c #222222",
"+	c #141414",
"..........",
"..........",
"..........",
"..........",
"..........",
"..........",
"..........",
"..........",
"..........",
"++++++++++"};
