/* XPM */
static char * close (copy)_xpm[] = {
"20 20 5 1",
" 	c None",
".	c #C3C3C3",
"+	c #222222",
"@	c #FFFFFF",
"#	c #000000",
"....................",
"....................",
"....................",
"++++++++++++++++++++",
"++++++++++++++++++++",
"++++++++++++++++++++",
"++++++++++++++++++++",
"++++++++++++++++++++",
"++++++++@+++@+++++++",
"+++++++++@#@++#+++++",
"++++++++++@#+#++++++",
"+++++++++@+@#+++++++",
"++++++++@++#@#++++++",
"++++++++++#+++#+++++",
"++++++++++++++++++++",
"++++++++++++++++++++",
"++++++++++++++++++++",
"++++++++++++++++++++",
"++++++++++++++++++++",
"++++++++++++++++++++"};
